<svg width="40" height="52" viewBox="0 0 40 52" fill="none" xmlns="http://www.w3.org/2000/svg">
<path d="M15.9546 40.4398C10.4506 38.5282 8.33045 33.7493 8.28056 27.4872V17.4184C8.28056 13.1503 9.32816 9.83802 11.4317 7.47326C15.2812 2.66134 24.7096 2.66134 28.5508 7.47326C30.646 9.83802 31.7019 13.1503 31.7019 17.4184V27.4872C31.7019 31.2444 30.8871 34.2766 29.2658 36.5919L32.3338 40.8106C42.0532 33.2796 42.3359 14.7406 34.3458 5.98189C29.0164 -0.0824386 19.2138 -1.49965 11.9305 1.56548C0.77277 5.98189 -1.87117 20.4506 1.17186 30.9725C3.49154 39.0968 10.3841 44.8727 19.006 44.815L15.963 40.4398H15.9546Z" fill="black" fill-opacity="0.8"/>
<path d="M22.7223 33.1148L31.8763 45.7049C32.716 46.8255 33.5558 47.5918 34.3955 48.0037C35.5096 48.7123 37.7129 48.7288 39.2428 48.6876V51.9834C36.2413 51.9505 30.8038 52.3295 28.5423 50.8052C27.1538 50.0142 25.8318 48.7123 24.5764 46.8914L14.9817 33.1148H22.7223Z" fill="#FFFF00"/>
</svg>
